<svg xmlns="http://www.w3.org/2000/svg" width="22.339" height="20.15" viewBox="0 0 29.339 26.15">
  <g id="Component_11_1" data-name="Component 11 – 1" transform="translate(0.5 0.5)">
    <path id="Path_321" data-name="Path 321" d="M507.125,329.72h-2.075l.14-1.439a1,1,0,0,0-.539-.99.981.981,0,0,0-1.1.082l-3.119,2.348h-1.376a1.561,1.561,0,0,0-1.559,1.559V335.5a1.561,1.561,0,0,0,1.559,1.559H506.3a1.569,1.569,0,0,0,1.529-1.265l.857-4.226a1.56,1.56,0,0,0-.322-1.293A1.676,1.676,0,0,0,507.125,329.72Zm-7.022,6.321h-1.046a.545.545,0,0,1-.538-.538v-4.224a.545.545,0,0,1,.538-.539H500.1Zm7.557-4.642-.858,4.224a.5.5,0,0,1-.5.418h-5.176v-5.587l3.033-2.3-.147,2.022a.494.494,0,0,0,.123.379.526.526,0,0,0,.389.154h2.636a.558.558,0,0,1,.4.194l.026.034a.928.928,0,0,1,.076.437Z" transform="translate(-485.746 -323.97)" fill="#fff" stroke="#fff" stroke-width="1"/>
    <path id="Path_322" data-name="Path 322" d="M509.063,323.091H490.639a1.783,1.783,0,0,0-1.782,1.781v7.748h-4.571a1.783,1.783,0,0,0-1.781,1.781v9.53a1.783,1.783,0,0,0,1.781,1.781h1.332l1.754,2.337a.532.532,0,0,0,.818,0l1.751-2.334h8.321a1.783,1.783,0,0,0,1.781-1.781V339.36h3.364l1.753,2.337a.531.531,0,0,0,.819,0l1.751-2.334h1.333a1.783,1.783,0,0,0,1.781-1.782V324.872A1.783,1.783,0,0,0,509.063,323.091Zm-10.04,20.84a.76.76,0,0,1-.76.76h-8.577a.535.535,0,0,0-.411.207l-1.5,2.005-1.5-2.008a.533.533,0,0,0-.408-.2h-1.588a.761.761,0,0,1-.76-.76V334.4a.76.76,0,0,1,.76-.76h4.571v3.937a1.784,1.784,0,0,0,1.782,1.782h8.383Zm10.8-6.353a.76.76,0,0,1-.76.76h-1.588a.536.536,0,0,0-.411.207l-1.5,2.005-1.5-2.009a.538.538,0,0,0-.408-.2H490.639a.761.761,0,0,1-.76-.76V324.872a.76.76,0,0,1,.76-.76h18.424a.76.76,0,0,1,.76.76Z" transform="translate(-482.505 -323.091)" fill="#fff" stroke="#fff" stroke-width="1"/>
    <ellipse id="Ellipse_71" data-name="Ellipse 71" cx="0.787" cy="0.787" rx="0.787" ry="0.787" transform="translate(7.724 18.239)" fill="#fff" stroke="#fff" stroke-width="1"/>
    <ellipse id="Ellipse_72" data-name="Ellipse 72" cx="0.787" cy="0.787" rx="0.787" ry="0.787" transform="translate(11.992 18.239)" fill="#fff" stroke="#fff" stroke-width="1"/>
    <ellipse id="Ellipse_73" data-name="Ellipse 73" cx="0.787" cy="0.787" rx="0.787" ry="0.787" transform="translate(3.454 18.239)" fill="#fff" stroke="#fff" stroke-width="1"/>
  </g>
</svg>
